<svg width="150" height="151" viewBox="0 0 150 151" fill="none" xmlns="http://www.w3.org/2000/svg">
<path d="M112.312 48.4379L101.52 49.5822L106.23 26.4132C106.653 24.3255 107.631 22.3924 109.059 20.8198C110.487 19.2472 112.312 18.094 114.34 17.4829L136.008 10.9239C140.309 9.62621 144.645 12.8586 144.645 17.3886C144.645 21.6472 140.438 24.62 136.465 23.169L133.453 22.4848L121.313 26.1064C120.132 26.4601 119.064 27.1189 118.215 28.0171C117.366 28.9154 116.765 30.0218 116.473 31.2263L112.312 48.4379ZM101.121 97.6191L93.6094 129.766L84.4805 126.521L90.1055 97.6191H101.121Z" fill="white"/>
<path d="M95.8125 120.328H22.0781V130.155H94.1484L95.8125 120.328Z" fill="white"/>
<path d="M2.28537 56.7192L10.969 99.3295C11.6369 102.633 14.5197 104.992 17.8596 104.992H98.1565C98.6867 104.992 99.2013 104.812 99.6164 104.48C100.031 104.147 100.322 103.684 100.442 103.163L114.528 41.8079C114.891 40.2389 113.625 38.7879 112.031 38.9295L8.54318 48.249C7.55697 48.3375 6.60046 48.6347 5.73638 49.1214C4.8723 49.608 4.12016 50.273 3.52928 51.0728C2.9384 51.8726 2.52213 52.7891 2.30775 53.7621C2.09338 54.7352 2.08575 55.7429 2.28537 56.7192V56.7192ZM18.633 58.005L23.6252 57.5568C24.1118 57.5127 24.6021 57.5711 25.065 57.7284C25.5278 57.8856 25.9531 58.1382 26.3136 58.4701C26.6741 58.8019 26.962 59.2057 27.1589 59.6558C27.3558 60.1058 27.4574 60.5923 27.4572 61.084V66.7701C27.4572 68.7284 25.8869 70.3092 23.9416 70.3092H18.6916C17.0276 70.3092 15.5862 69.1295 15.2463 67.4779L14.4729 63.6557C14.3362 63.0053 14.3382 62.333 14.4789 61.6833C14.6196 61.0337 14.8957 60.4216 15.289 59.8874C15.6823 59.3532 16.1837 58.9092 16.7602 58.5847C17.3367 58.2602 17.975 58.0626 18.633 58.005V58.005ZM63.4104 79.7349H70.0666C72.0119 79.7349 73.5822 81.3157 73.5822 83.2739V90.8357C73.5822 92.794 72.0119 94.3748 70.0666 94.3748H63.4104C61.4651 94.3748 59.8947 92.794 59.8947 90.8357V83.2739C59.8947 81.3157 61.4651 79.7349 63.4104 79.7349ZM70.0666 70.2974H63.4104C61.4651 70.2974 59.8947 68.7166 59.8947 66.7583V57.5214C59.8947 55.6929 61.2893 54.1593 63.094 53.9941L69.7502 53.3925C70.2368 53.3484 70.7271 53.4068 71.19 53.5641C71.6528 53.7213 72.0781 53.9739 72.4386 54.3058C72.7991 54.6376 73.087 55.0414 73.2839 55.4915C73.4808 55.9415 73.5824 56.428 73.5822 56.9197V66.7583C73.5822 68.7166 72.0119 70.2974 70.0666 70.2974ZM50.5197 83.2739V90.8357C50.5197 92.794 48.9494 94.3748 47.0041 94.3748H40.3479C38.4026 94.3748 36.8322 92.794 36.8322 90.8357V83.2739C36.8322 81.3157 38.4026 79.7349 40.3479 79.7349H47.0041C48.9494 79.7349 50.5197 81.3157 50.5197 83.2739ZM47.0041 70.2974H40.3479C38.4026 70.2974 36.8322 68.7166 36.8322 66.7583V59.5976C36.8322 57.7691 38.2268 56.2355 40.0315 56.0704L46.6877 55.4687C47.1743 55.4246 47.6646 55.4831 48.1275 55.6403C48.5903 55.7976 49.0156 56.0502 49.3761 56.382C49.7366 56.7139 50.0245 57.1177 50.2214 57.5677C50.4183 58.0178 50.5199 58.5042 50.5197 58.996V66.7583C50.5197 68.7166 48.9494 70.2974 47.0041 70.2974ZM100.606 55.2682L97.7815 67.5487C97.6026 68.3272 97.1668 69.0217 96.5453 69.5187C95.9239 70.0158 95.1534 70.2861 94.3596 70.2856H86.4729C84.5276 70.2856 82.9573 68.7048 82.9573 66.7465V55.4451C82.9573 53.6166 84.3518 52.083 86.1565 51.9178L96.8557 50.9505C99.2463 50.7382 101.145 52.9324 100.606 55.2682V55.2682ZM87.9026 94.3748H85.3127C84.0237 94.3748 82.969 93.3131 82.969 92.0154V83.2739C82.969 81.3157 84.5393 79.7349 86.4846 79.7349H90.5744C92.8362 79.7349 94.5119 81.8583 93.9963 84.0761L92.4729 90.7296C92.2301 91.7665 91.6467 92.6905 90.8173 93.3521C89.9878 94.0136 88.9608 94.374 87.9026 94.3748V94.3748ZM18.4572 83.2386C18.0822 81.4218 19.4651 79.7231 21.3049 79.7231H23.9416C25.8869 79.7231 27.4572 81.3039 27.4572 83.2622V91.4374C27.4572 91.8216 27.3821 92.202 27.236 92.557C27.09 92.9119 26.8759 93.2344 26.606 93.5061C26.3362 93.7778 26.0158 93.9933 25.6632 94.1403C25.3106 94.2873 24.9327 94.363 24.551 94.363C22.3244 94.363 20.4026 92.7822 19.9572 90.588L18.4572 83.2386V83.2386Z" fill="#000AFF"/>
<path d="M88.5234 138.413C95.6427 138.413 101.414 132.603 101.414 125.436C101.414 118.269 95.6427 112.459 88.5234 112.459C81.4041 112.459 75.6328 118.269 75.6328 125.436C75.6328 132.603 81.4041 138.413 88.5234 138.413Z" fill="white"/>
<path d="M88.5234 131.488C91.8436 131.488 94.5351 128.778 94.5351 125.436C94.5351 122.094 91.8436 119.384 88.5234 119.384C85.2033 119.384 82.5117 122.094 82.5117 125.436C82.5117 128.778 85.2033 131.488 88.5234 131.488Z" fill="#0500FF"/>
<path d="M26.6016 138.413C33.7209 138.413 39.4922 132.603 39.4922 125.436C39.4922 118.269 33.7209 112.459 26.6016 112.459C19.4823 112.459 13.7109 118.269 13.7109 125.436C13.7109 132.603 19.4823 138.413 26.6016 138.413Z" fill="white"/>
<path d="M26.6016 131.488C29.9217 131.488 32.6133 128.778 32.6133 125.436C32.6133 122.094 29.9217 119.384 26.6016 119.384C23.2814 119.384 20.5898 122.094 20.5898 125.436C20.5898 128.778 23.2814 131.488 26.6016 131.488Z" fill="#000AFF"/>
<path d="M138.973 27.9112C143.768 27.9112 147.656 23.9975 147.656 19.1697C147.656 14.3419 143.768 10.4282 138.973 10.4282C134.177 10.4282 130.289 14.3419 130.289 19.1697C130.289 23.9975 134.177 27.9112 138.973 27.9112Z" fill="white"/>
</svg>
