<svg width="33" height="33" viewBox="0 0 33 33" fill="none" xmlns="http://www.w3.org/2000/svg">
<g clip-path="url(#clip0_432_2)">
<path d="M4.125 33C3.03098 33 1.98177 32.5654 1.20818 31.7918C0.434597 31.0182 0 29.969 0 28.875V4.125C0 3.03098 0.434597 1.98177 1.20818 1.20818C1.98177 0.434597 3.03098 0 4.125 0L28.875 0C29.969 0 31.0182 0.434597 31.7918 1.20818C32.5654 1.98177 33 3.03098 33 4.125V28.875C33 29.969 32.5654 31.0182 31.7918 31.7918C31.0182 32.5654 29.969 33 28.875 33H4.125ZM17.5312 23.7188V11.7707L21.9574 16.1989C22.0533 16.2948 22.1671 16.3708 22.2924 16.4227C22.4176 16.4746 22.5519 16.5013 22.6875 16.5013C22.8231 16.5013 22.9574 16.4746 23.0826 16.4227C23.2079 16.3708 23.3217 16.2948 23.4176 16.1989C23.5135 16.103 23.5896 15.9892 23.6415 15.8639C23.6933 15.7386 23.7201 15.6043 23.7201 15.4688C23.7201 15.3332 23.6933 15.1989 23.6415 15.0736C23.5896 14.9483 23.5135 14.8345 23.4176 14.7386L17.2301 8.55112C17.1343 8.45509 17.0205 8.37889 16.8952 8.3269C16.77 8.27492 16.6356 8.24816 16.5 8.24816C16.3644 8.24816 16.23 8.27492 16.1048 8.3269C15.9795 8.37889 15.8657 8.45509 15.7699 8.55112L9.58237 14.7386C9.38873 14.9323 9.27995 15.1949 9.27995 15.4688C9.27995 15.7426 9.38873 16.0052 9.58237 16.1989C9.77602 16.3925 10.0387 16.5013 10.3125 16.5013C10.5863 16.5013 10.849 16.3925 11.0426 16.1989L15.4688 11.7707V23.7188C15.4688 23.9923 15.5774 24.2546 15.7708 24.448C15.9642 24.6414 16.2265 24.75 16.5 24.75C16.7735 24.75 17.0358 24.6414 17.2292 24.448C17.4226 24.2546 17.5312 23.9923 17.5312 23.7188Z" fill="white"/>
</g>
<defs>
<clipPath id="clip0_432_2">
<rect width="33" height="33" rx="16.5" fill="white"/>
</clipPath>
</defs>
</svg>
